<svg width="97" height="97" viewBox="0 0 97 97" fill="none" xmlns="http://www.w3.org/2000/svg">
<g clip-path="url(#clip0_12_55)">
<path d="M48.5 97C21.825 97 0 75.175 0 48.5C0 21.825 21.825 0 48.5 0C75.175 0 97 21.825 97 48.5C97 75.175 75.175 97 48.5 97ZM48.5 8.08333C26.2708 8.08333 8.08333 26.2708 8.08333 48.5C8.08333 70.7292 26.2708 88.9167 48.5 88.9167C70.7292 88.9167 88.9167 70.7292 88.9167 48.5C88.9167 26.2708 70.7292 8.08333 48.5 8.08333Z" fill="#F1C40F"/>
<path d="M50.1167 47.2875C45.6708 52.1375 44.4583 54.5625 44.0542 59.8167H53.7542C53.7542 57.7958 54.5625 55.775 57.7958 52.1375C62.2417 47.2875 67.4958 42.4375 67.4958 35.1625C67.4958 24.25 60.2208 18.1875 48.9042 18.1875C41.6292 18.1875 35.1625 21.0167 31.1208 25.4625V35.5667C35.1625 31.525 41.225 27.4833 48.5 27.4833C54.5625 27.4833 57.7958 30.3125 57.7958 35.5667C57.7958 40.8208 53.35 43.65 50.1167 47.2875ZM41.6292 72.3458C41.6292 75.9833 44.4583 79.2167 48.0958 79.2167C51.7333 79.2167 54.5625 76.3875 54.5625 72.3458C54.5625 68.3042 51.7333 65.475 48.0958 65.475C44.4583 65.475 41.6292 68.7083 41.6292 72.3458Z" fill="#F1C40F"/>
</g>
<defs>
<clipPath id="clip0_12_55">
<rect width="97" height="97" fill="white"/>
</clipPath>
</defs>
</svg>
