<svg width="97" height="97" viewBox="0 0 97 97" fill="none" xmlns="http://www.w3.org/2000/svg">
<g clip-path="url(#clip0_12_37)">
<path d="M84.624 15.6329H42.9334C47.1831 18.1267 50.8453 21.476 53.7156 25.4417H84.624C86.0383 25.4417 87.1914 26.5941 87.1914 28.0086V74.9165C87.1914 76.3314 86.0385 77.4842 84.624 77.4842H37.7159C36.3011 77.4842 35.1486 76.3314 35.1486 74.9165V43.6636C33.964 43.0543 32.7252 42.5404 31.4447 42.1439C30.6943 44.4561 29.0655 46.4261 26.8243 47.6042C26.3546 47.8502 25.8441 48 25.3396 48.1631V74.9167C25.3396 81.7401 30.892 87.2933 37.7157 87.2933H84.6237C91.4474 87.2933 97 81.7401 97 74.9167V28.0086C97 21.1853 91.4476 15.6329 84.624 15.6329Z" fill="#E67E22"/>
<path d="M25.3616 34.5864C35.4678 34.8289 44.3062 40.1453 49.3893 48.1215C49.8553 48.8497 50.6539 49.2709 51.4839 49.2709C51.7103 49.2709 51.9402 49.239 52.1639 49.1753C53.2207 48.8717 53.9552 47.9139 53.968 46.8156C53.968 46.7166 53.968 46.6171 53.968 46.5188C53.968 30.5696 41.2215 17.6222 25.3654 17.242V12.6059C25.3654 11.5265 24.7683 10.5399 23.8168 10.0355C23.3922 9.81165 22.9258 9.70001 22.4628 9.70001C21.8849 9.70001 21.3134 9.87297 20.8216 10.2079L1.13035 23.6854C0.424951 24.1677 0.00355767 24.9659 1.98508e-05 25.8214C-0.00332142 26.6741 0.41532 27.476 1.11777 27.9642L20.8057 41.6144C21.3006 41.959 21.8787 42.1316 22.4594 42.1316C22.9223 42.1316 23.3824 42.0229 23.8072 41.8021C24.7614 41.3011 25.3616 40.3084 25.3616 39.229V34.5864Z" fill="#E67E22"/>
</g>
<defs>
<clipPath id="clip0_12_37">
<rect width="97" height="97" fill="white"/>
</clipPath>
</defs>
</svg>
