<svg width="97" height="97" viewBox="0 0 97 97" fill="none" xmlns="http://www.w3.org/2000/svg">
<path d="M77.4289 57.3014C77.4289 49.3649 69.0829 32.0652 60.0646 14.5527C59.4179 13.2903 58.8494 12.1923 58.3913 11.2897C54.9128 4.43368 50.6192 3.40979 48.368 3.40979C44.4651 3.40979 40.9111 6.21201 38.3595 11.3005C37.9553 12.1061 37.4595 13.0828 36.8923 14.1983C27.8969 31.917 19.5711 49.4026 19.5711 57.2987C19.5711 72.5142 31.3862 84.9962 46.3188 86.1185V90.8984C46.3188 92.3857 47.526 93.5928 49.0133 93.5928C50.5006 93.5928 51.7077 92.3857 51.7077 90.8984V86.0417C66.154 84.4385 77.4289 72.1666 77.4289 57.3014ZM50.3605 80.7471V72.8739L60.1831 63.05C60.7099 62.5232 60.7099 61.6731 60.1831 61.1463C59.6563 60.6182 58.8049 60.6182 58.2781 61.1463L50.3605 69.064V42.8969L57.9103 35.347C58.4371 34.8203 58.4371 33.9688 57.9103 33.4421C57.3822 32.9153 56.5321 32.9153 56.0054 33.4421L50.3619 39.0856V35.6596C50.3619 34.9146 49.7597 34.3124 49.0146 34.3124C48.2696 34.3124 47.6674 34.9146 47.6674 35.6596V41.78L47.5852 41.8622C47.0585 42.389 47.0585 43.2404 47.5852 43.7672C47.6095 43.7914 47.6418 43.7995 47.6674 43.8224V58.2646L40.6295 51.2254C40.1028 50.6973 39.2513 50.6973 38.7246 51.2254C38.1978 51.7522 38.1978 52.6023 38.7246 53.1304L47.5489 61.956C47.5839 61.9911 47.6297 62.0045 47.6674 62.0355V71.7584L47.5852 71.8406C47.0585 72.3674 47.0585 73.2188 47.5852 73.7456C47.6095 73.7698 47.6418 73.7779 47.6674 73.8008V80.7996C35.0736 80.3564 24.96 70.0003 24.96 57.3027C24.96 49.606 37.1214 25.6551 41.6979 16.6409C42.2691 15.5159 42.7689 14.5311 43.1785 13.7174C44.7224 10.6376 46.6624 8.80003 48.3693 8.80003C50.0992 8.80003 51.9987 10.5959 53.5885 13.7295C54.0506 14.6389 54.6231 15.7503 55.2752 17.0208C60.2922 26.7625 72.0414 49.5777 72.0414 57.3027C72.04 69.6527 62.4693 79.7932 50.3605 80.7471Z" fill="#27AE60"/>
<path d="M49.0133 28.9235C48.2683 28.9235 47.6661 29.5257 47.6661 30.2707V31.6179C47.6661 32.3629 48.2683 32.9651 49.0133 32.9651C49.7583 32.9651 50.3605 32.3629 50.3605 31.6179V30.2707C50.3605 29.5257 49.7583 28.9235 49.0133 28.9235Z" fill="#27AE60"/>
<path d="M36.0368 48.5256C35.7809 48.7816 35.6327 49.1318 35.6327 49.4808C35.6327 49.8459 35.7809 50.1948 36.0234 50.4386C36.2793 50.6933 36.6296 50.828 36.9799 50.828C37.345 50.828 37.6818 50.6933 37.9364 50.4386C38.1803 50.184 38.3271 49.8472 38.3271 49.4808C38.3271 49.1318 38.1924 48.7815 37.9364 48.5377C37.438 48.0406 36.5218 48.0406 36.0368 48.5256Z" fill="#27AE60"/>
</svg>
