<svg width="97" height="97" viewBox="0 0 97 97" fill="none" xmlns="http://www.w3.org/2000/svg">
<g clip-path="url(#clip0_12_60)">
<path d="M36.6579 28.2917L24.25 46.9076V80.8333H72.75V28.2917H36.6579ZM32.3333 20.2083H76.7917C77.8636 20.2083 78.8916 20.6341 79.6496 21.3921C80.4075 22.1501 80.8333 23.1781 80.8333 24.25V84.875C80.8333 85.9469 80.4075 86.9749 79.6496 87.7329C78.8916 88.4908 77.8636 88.9167 76.7917 88.9167H20.2083C19.1364 88.9167 18.1084 88.4908 17.3504 87.7329C16.5925 86.9749 16.1667 85.9469 16.1667 84.875V44.4583L32.3333 20.2083ZM52.5417 4.04166H72.75C73.8219 4.04166 74.8499 4.46747 75.6079 5.22543C76.3659 5.98339 76.7917 7.01141 76.7917 8.08332V16.1667H48.5V8.08332C48.5 7.01141 48.9258 5.98339 49.6838 5.22543C50.4417 4.46747 51.4697 4.04166 52.5417 4.04166ZM32.3333 48.5H40.4167V72.75H32.3333V48.5Z" fill="#E74C3C"/>
</g>
<defs>
<clipPath id="clip0_12_60">
<rect width="97" height="97" fill="white"/>
</clipPath>
</defs>
</svg>
